<svg xmlns="http://www.w3.org/2000/svg" width="8.414" height="16" viewBox="0 0 8.414 16">
  <path id="Facebook_Logo" data-name="Facebook Logo" d="M323.1,1987l-2.018,0a3.6,3.6,0,0,0-3.732,3.938v1.815h-2.029a.322.322,0,0,0-.317.327v2.63a.322.322,0,0,0,.317.326h2.029v6.638a.322.322,0,0,0,.317.327h2.648a.322.322,0,0,0,.317-.327v-6.638H323a.321.321,0,0,0,.317-.326v-2.63a.331.331,0,0,0-.093-.231.313.313,0,0,0-.224-.1h-2.373v-1.539c0-.739.171-1.115,1.109-1.115H323.1a.322.322,0,0,0,.317-.326v-2.442A.322.322,0,0,0,323.1,1987Z" transform="translate(-315 -1986.999)" fill="#fff"/>
</svg>
