<svg xmlns="http://www.w3.org/2000/svg" width="15.987" height="15.158" viewBox="0 0 15.987 15.158">
  <path id="Google_Plus_Logo" data-name="Google Plus Logo" d="M373.585,1990.779a3.006,3.006,0,0,0,1.322,2.76,3.871,3.871,0,0,0,1.986.514c.105,0,.19,0,.249-.008a2.406,2.406,0,0,0,.526,1.719h-.03c-1.15,0-4.9.232-4.9,3.209,0,3.029,3.445,3.183,4.136,3.183h.086c.008,0,.057,0,.141,0a6.575,6.575,0,0,0,2.654-.554,3.427,3.427,0,0,0,2.082-3.346,4.077,4.077,0,0,0-1.846-3.086c-.476-.4-.887-.75-.887-1.089s.3-.6.68-.932a3.284,3.284,0,0,0,1.194-2.714c0-1.255-.169-2.1-1.207-2.632a3.8,3.8,0,0,1,.68-.118c.563-.074,1.386-.159,1.386-.6V1987h-4.1C377.692,1987,373.585,1987.147,373.585,1990.779Zm6.622,7.762c.078,1.212-.995,2.105-2.606,2.219-1.637.115-2.984-.6-3.063-1.806a1.968,1.968,0,0,1,.745-1.6,3.463,3.463,0,0,1,2.033-.8c.093-.006.185-.01.276-.01A2.347,2.347,0,0,1,380.207,1998.541Zm-1.071-8.591c.4,1.367-.205,2.8-1.173,3.059a1.311,1.311,0,0,1-.343.046,2.519,2.519,0,0,1-2.092-2.06,2.878,2.878,0,0,1,.041-1.82,1.59,1.59,0,0,1,1.037-1.055,1.3,1.3,0,0,1,.343-.046C378.021,1988.074,378.709,1988.5,379.135,1989.95Zm6.912,2.977v-2.584h-1.695v2.584h-2.676v1.636h2.676v2.583h1.695v-2.583h2.676v-1.636Z" transform="translate(-372.737 -1986.999)" fill="#fff"/>
</svg>
