<svg xmlns="http://www.w3.org/2000/svg" width="15.987" height="12.632" viewBox="0 0 15.987 12.632">
  <path id="Twitter_Logo_Silhouette" data-name="Twitter Logo Silhouette" d="M357.969,1989.075a6.709,6.709,0,0,1-2.084.774,3.313,3.313,0,0,0-2.393-1.008,3.236,3.236,0,0,0-3.28,3.189,3.121,3.121,0,0,0,.085.726,9.4,9.4,0,0,1-6.76-3.332,3.1,3.1,0,0,0-.443,1.6,3.166,3.166,0,0,0,1.459,2.654,3.345,3.345,0,0,1-1.485-.4v.04a3.218,3.218,0,0,0,2.63,3.128,3.363,3.363,0,0,1-1.482.054,3.276,3.276,0,0,0,3.063,2.216,6.7,6.7,0,0,1-4.073,1.364,6.986,6.986,0,0,1-.783-.044,9.48,9.48,0,0,0,5.028,1.433,9.134,9.134,0,0,0,9.331-9.075l-.011-.413a6.5,6.5,0,0,0,1.639-1.649,6.685,6.685,0,0,1-1.883.5A3.225,3.225,0,0,0,357.969,1989.075Z" transform="translate(-342.423 -1988.841)" fill="#fff"/>
</svg>
